<?xml version="1.0" standalone="no"?>
<!DOCTYPE svg PUBLIC "-//W3C//DTD SVG 20010904//EN"
 "http://www.w3.org/TR/2001/REC-SVG-20010904/DTD/svg10.dtd">
<svg version="1.0" xmlns="http://www.w3.org/2000/svg"
 width="144.000000pt" height="150.000000pt" viewBox="0 0 144.000000 150.000000"
 preserveAspectRatio="xMidYMid meet">

<g transform="translate(0.000000,150.000000) scale(0.100000,-0.100000)"
fill="#000000" stroke="none">
<path d="M161 1234 c7 -8 2 -14 -16 -18 -14 -4 -25 -11 -25 -17 0 -6 -4 -7
-10 -4 -5 3 -10 2 -10 -4 0 -6 -7 -8 -15 -5 -22 9 -19 -15 10 -80 31 -70 13
-75 -19 -5 -35 75 -42 41 -8 -37 24 -53 31 -63 39 -50 7 12 15 -6 31 -72 12
-49 22 -97 22 -106 0 -9 9 -44 20 -77 l21 -61 -30 -63 c-16 -35 -38 -72 -50
-84 -14 -14 -21 -34 -21 -60 0 -25 -5 -41 -15 -45 -8 -3 -15 -11 -15 -18 0 -9
3 -8 10 2 6 10 10 11 10 3 0 -20 -4 -28 -12 -26 -17 6 -7 -17 11 -26 12 -7 21
-26 25 -55 4 -26 13 -47 22 -50 13 -5 15 3 14 42 -3 88 -4 85 38 76 48 -10
201 -11 195 -1 -2 4 3 21 11 39 9 17 16 38 16 46 0 10 7 13 28 8 l27 -6 -27
15 c-33 18 -32 17 -13 81 8 27 15 86 15 132 0 99 17 148 55 158 22 5 34 0 68
-32 l42 -39 -40 44 c-37 40 -38 43 -15 37 18 -4 16 -2 -7 9 -35 16 -45 48 -19
58 16 6 99 -22 104 -35 2 -5 13 -8 23 -8 13 0 18 -4 13 -12 -5 -10 -3 -10 7 0
12 11 12 14 -1 22 -13 8 -13 10 2 10 9 0 23 12 30 28 l14 27 -93 1 c-78 0 -93
-2 -94 -15 -1 -9 -4 -5 -8 9 -7 23 -8 22 -15 -15 -4 -22 -13 -46 -18 -53 -8
-9 -7 -11 6 -6 9 3 16 2 16 -4 0 -8 -22 -22 -36 -22 -9 0 -4 39 6 42 5 2 7 13
4 25 -5 18 -11 22 -29 17 -29 -7 -65 11 -66 34 0 11 -2 13 -6 4 -3 -7 5 -24
18 -38 l22 -24 -30 0 c-17 0 -38 3 -46 6 -13 5 -13 8 4 25 10 10 19 25 19 32
0 6 -5 4 -11 -6 -18 -30 -58 -40 -87 -21 -24 16 -25 16 -19 -7 6 -23 5 -23 -9
-4 -24 32 -14 85 19 105 17 11 24 20 18 25 -6 3 -9 11 -6 16 12 19 -35 8 -58
-13 -22 -21 -23 -26 -11 -58 7 -19 13 -42 13 -50 0 -29 -31 66 -34 103 l-2 37
311 -6 c171 -3 394 -9 495 -14 l185 -7 25 -30 c14 -16 39 -44 54 -63 16 -19
26 -30 23 -23 -4 6 0 13 6 16 10 3 11 7 1 19 -10 11 -10 23 -2 47 6 17 15 28
20 25 5 -3 6 3 2 12 -5 13 -3 15 8 9 8 -5 5 2 -6 14 l-19 23 -7 -24 c-3 -13
-14 -39 -24 -58 -27 -51 -31 -18 -6 41 22 49 20 75 -3 66 -14 -6 -58 28 -48
37 3 4 -2 4 -13 0 -15 -6 -17 -4 -12 10 6 14 3 17 -9 12 -8 -3 -172 -1 -362 4
-550 16 -652 17 -641 4z m148 -13 c9 -6 10 -11 2 -15 -6 -4 -15 -4 -21 -1 -5
3 -10 2 -10 -3 0 -5 9 -12 20 -15 11 -3 20 -12 20 -21 0 -30 -70 -41 -87 -13
-4 6 2 8 15 5 28 -8 29 8 2 17 -22 7 -27 40 -7 48 20 8 51 7 66 -2z m121 -8
c3 -3 -3 -10 -13 -17 -9 -7 -17 -25 -17 -40 0 -16 -5 -26 -15 -26 -10 0 -15
10 -15 30 0 18 -6 33 -15 36 -8 4 -15 12 -15 20 0 11 10 13 43 8 23 -4 44 -9
47 -11z m90 -7 c15 -20 9 -56 -12 -70 -25 -16 -72 4 -76 32 -5 31 15 52 48 52
15 0 33 -7 40 -14z m104 8 c26 -10 18 -23 -16 -26 -37 -3 -47 -31 -13 -35 11
-2 14 0 8 3 -22 10 -14 24 12 24 20 0 25 -5 25 -25 0 -22 -4 -25 -38 -25 -43
0 -62 14 -62 47 0 33 43 53 84 37z m106 -9 c0 -8 -10 -16 -22 -16 l-23 -2 23
-4 c12 -2 22 -9 22 -14 0 -5 -10 -10 -22 -10 l-23 -2 23 -4 c35 -7 26 -23 -13
-23 -35 0 -35 0 -35 45 0 45 0 45 35 45 24 0 35 -5 35 -15z m103 9 c22 -4 37
-12 37 -20 0 -8 7 -14 15 -14 8 0 15 7 15 15 0 8 7 15 15 15 16 0 18 -12 9
-59 -6 -30 -29 -39 -29 -11 0 20 -24 24 -31 6 -3 -9 -13 -16 -21 -16 -11 0
-14 9 -11 33 3 29 1 33 -14 29 -12 -3 -18 -14 -18 -33 0 -19 -5 -29 -15 -29
-10 0 -15 10 -15 30 0 20 -5 30 -15 30 -8 0 -15 4 -15 8 0 23 25 27 93 16z
m177 -19 c0 -8 -8 -16 -17 -16 -17 -1 -17 -2 0 -6 24 -6 21 -23 -5 -24 l-23
-2 23 -4 c35 -7 26 -23 -13 -23 -35 0 -35 0 -35 45 0 45 0 45 35 45 24 0 35
-5 35 -15z m90 0 c7 -9 9 -22 5 -32 -5 -10 -7 -24 -6 -30 1 -7 -5 -13 -13 -13
-8 0 -17 6 -20 13 -5 10 -7 10 -12 0 -10 -22 -34 -15 -34 10 0 48 11 67 40 67
15 0 33 -7 40 -15z m-440 -244 c0 -16 -26 -19 -51 -5 -24 13 -23 13 14 14 20
0 37 -4 37 -9z m-412 -76 c0 -5 -6 4 -13 20 -8 17 -14 37 -14 45 0 8 7 -1 14
-20 7 -19 13 -39 13 -45z m132 -45 c33 0 41 -3 30 -10 -23 -15 -77 -12 -110 5
-39 20 -38 26 2 14 18 -5 53 -9 78 -9z m37 -142 c-3 -7 -5 -2 -5 12 0 14 2 19
5 13 2 -7 2 -19 0 -25z"/>
<path d="M280 1159 c0 -5 5 -7 10 -4 6 3 10 8 10 11 0 2 -4 4 -10 4 -5 0 -10
-5 -10 -11z"/>
<path d="M467 1194 c-14 -15 -6 -34 14 -34 14 0 19 5 17 17 -3 18 -20 27 -31
17z"/>
<path d="M1060 1170 c0 -5 5 -10 10 -10 6 0 10 5 10 10 0 6 -4 10 -10 10 -5 0
-10 -4 -10 -10z"/>
<path d="M25 1090 c-3 -5 -1 -10 4 -10 6 0 11 5 11 10 0 6 -2 10 -4 10 -3 0
-8 -4 -11 -10z"/>
<path d="M397 1083 c-15 -16 -14 -18 21 -35 32 -16 33 -17 9 -13 -17 3 -26 2
-23 -3 3 -6 21 -12 39 -14 31 -3 33 -2 33 29 0 24 -2 29 -8 18 -10 -17 -26
-19 -47 -6 -12 8 -12 12 -2 25 18 21 0 20 -22 -1z"/>
<path d="M303 1061 c0 -11 5 -18 9 -15 4 3 5 11 1 19 -7 21 -12 19 -10 -4z"/>
<path d="M720 1053 c0 -7 -10 -13 -22 -15 -12 -2 -23 -9 -26 -15 -6 -19 29
-15 45 5 13 16 13 16 11 -3 -1 -11 2 -20 7 -20 15 0 14 19 -1 40 -8 10 -14 14
-14 8z"/>
<path d="M767 1031 c-3 -14 -1 -18 9 -14 16 6 18 19 5 27 -5 3 -11 -3 -14 -13z"/>
<path d="M976 1034 c-3 -9 -6 -26 -6 -39 0 -13 -4 -26 -9 -29 -4 -3 -7 12 -6
35 2 38 1 39 -16 23 -23 -21 -24 -32 -3 -56 14 -14 14 -20 4 -33 -7 -9 -11
-18 -8 -20 10 -10 45 53 51 93 7 43 4 55 -7 26z"/>
<path d="M998 1020 c-3 -16 -2 -30 1 -30 17 1 33 20 29 35 -5 31 -25 28 -30
-5z"/>
<path d="M258 1015 c-10 -18 -10 -19 5 -6 10 8 31 12 52 9 19 -2 35 -1 35 3 0
4 -18 9 -41 11 -33 3 -43 0 -51 -17z"/>
<path d="M557 1023 c-4 -3 -2 -12 4 -20 9 -10 15 -10 25 -2 8 6 14 15 14 20 0
10 -34 12 -43 2z"/>
<path d="M66 1012 c-2 -4 -1 -14 5 -22 7 -12 9 -10 9 8 0 23 -5 28 -14 14z"/>
<path d="M285 1000 c-4 -7 -3 -16 3 -22 14 -14 47 -6 47 12 0 18 -40 26 -50
10z"/>
<path d="M417 1004 c-16 -16 -6 -34 19 -34 19 0 25 5 22 17 -3 19 -29 29 -41
17z"/>
<path d="M1193 970 c-20 -8 -22 -12 -11 -35 l11 -25 19 27 c28 44 24 50 -19
33z"/>
<path d="M747 955 c-8 -18 11 -31 25 -17 11 11 3 32 -12 32 -4 0 -10 -7 -13
-15z"/>
<path d="M854 938 c1 -29 36 -38 36 -10 0 11 -7 23 -16 26 -22 8 -21 9 -20
-16z"/>
<path d="M970 931 c0 -13 29 -35 37 -28 7 8 -15 37 -28 37 -5 0 -9 -4 -9 -9z"/>
<path d="M1208 906 c-16 -19 -28 -40 -28 -45 0 -6 -4 -11 -8 -11 -5 0 -7 -13
-4 -30 3 -21 13 -34 35 -45 34 -17 52 -20 25 -4 -10 5 -18 16 -18 24 0 9 -6
12 -15 9 -28 -11 -9 58 31 114 25 34 12 26 -18 -12z"/>
<path d="M720 897 c0 -9 5 -19 10 -22 8 -5 8 -11 0 -20 -16 -20 48 -39 84 -26
35 14 33 18 -8 13 -38 -4 -54 11 -35 34 14 17 12 20 -24 29 -21 6 -27 4 -27
-8z"/>
<path d="M1070 881 c0 -11 40 -22 52 -15 5 3 6 10 3 15 -8 12 -55 12 -55 0z"/>
<path d="M599 871 c7 -5 10 -14 7 -20 -4 -6 -2 -11 3 -11 6 0 11 4 11 8 0 20
38 8 49 -14 14 -31 14 -34 1 -34 -5 0 -10 9 -10 19 0 11 -5 23 -11 26 -7 5 -8
-5 -4 -29 7 -37 -1 -46 -23 -24 -8 8 -12 8 -12 1 0 -6 20 -18 45 -27 25 -8 43
-11 40 -5 -4 5 -14 9 -23 9 -14 0 -14 2 -3 9 8 5 20 7 28 4 8 -3 2 14 -15 43
-24 42 -33 49 -63 52 -23 2 -30 0 -20 -7z"/>
<path d="M996 854 c6 -22 4 -25 -7 -19 -12 8 -12 6 0 -8 7 -9 25 -17 40 -16
l26 0 -24 10 c-22 9 -23 10 -7 28 15 17 16 19 1 25 -29 11 -36 6 -29 -20z"/>
<path d="M920 863 c0 -7 5 -24 12 -38 10 -22 9 -27 -8 -40 -18 -14 -18 -14 7
-15 19 0 26 5 24 18 -2 22 -34 91 -35 75z"/>
<path d="M970 779 c0 -6 -14 -15 -31 -21 -47 -16 -28 -20 35 -5 l56 13 -30 11
c-18 7 -30 7 -30 2z"/>
<path d="M1031 743 c-56 -68 -61 -73 -81 -73 -11 0 -20 5 -20 10 0 6 -4 10
-10 10 -5 0 -7 -6 -4 -14 3 -9 -5 -22 -21 -32 -25 -16 -30 -16 -78 -1 -29 8
-79 21 -111 27 -61 13 -146 45 -146 55 0 4 5 16 11 28 9 19 7 18 -10 -3 -11
-14 -21 -28 -21 -31 0 -3 -12 -4 -27 -2 -26 4 -26 3 6 -11 18 -9 37 -14 41
-11 4 3 24 -2 44 -10 40 -17 41 -19 29 -137 -4 -53 -9 -68 -22 -68 -14 0 -14
-2 -1 -10 8 -5 20 -24 26 -42 11 -29 12 -26 7 35 -4 48 -1 86 12 133 l18 65
21 -20 c25 -23 76 -45 76 -31 0 5 28 9 63 10 34 0 71 1 82 1 11 0 26 -9 34
-21 11 -16 24 -20 74 -20 59 0 60 1 39 16 -32 22 -55 71 -47 103 3 14 18 38
33 54 14 15 23 27 20 27 -3 0 -20 -17 -37 -37z m-258 -110 c-7 -2 -19 -2 -25
0 -7 3 -2 5 12 5 14 0 19 -2 13 -5z m255 -24 c12 -19 11 -19 -7 -10 -26 14
-36 31 -19 31 7 0 19 -9 26 -21z"/>
<path d="M803 753 c9 -2 23 -2 30 0 6 3 -1 5 -18 5 -16 0 -22 -2 -12 -5z"/>
<path d="M1235 730 c-3 -5 -2 -10 4 -10 5 0 13 5 16 10 3 6 2 10 -4 10 -5 0
-13 -4 -16 -10z"/>
<path d="M808 723 c7 -3 16 -2 19 1 4 3 -2 6 -13 5 -11 0 -14 -3 -6 -6z"/>
<path d="M1050 722 c0 -5 7 -15 15 -22 8 -7 15 -8 15 -2 0 5 -7 15 -15 22 -8
7 -15 8 -15 2z"/>
<path d="M865 710 c3 -5 10 -10 16 -10 5 0 9 5 9 10 0 6 -7 10 -16 10 -8 0
-12 -4 -9 -10z"/>
<path d="M1152 644 c14 -14 21 -15 30 -6 8 8 9 12 1 12 -6 0 -20 3 -30 6 -17
7 -17 6 -1 -12z"/>
<path d="M1214 595 c22 -17 40 -20 32 -6 -3 5 -16 11 -28 14 -22 6 -22 5 -4
-8z"/>
<path d="M760 586 c0 -2 8 -10 18 -17 15 -13 16 -12 3 4 -13 16 -21 21 -21 13z"/>
<path d="M1190 581 c0 -5 -9 -12 -20 -14 -16 -4 -15 -4 3 -3 14 0 32 -5 41
-13 13 -11 16 -11 16 0 0 8 -9 20 -20 27 -11 7 -20 8 -20 3z"/>
<path d="M931 518 c38 -16 49 -39 39 -84 -4 -22 -10 -67 -13 -101 l-5 -61 58
-4 c58 -3 58 -3 68 30 9 27 7 39 -13 75 -13 23 -27 61 -31 85 -6 39 -5 42 17
43 13 1 -3 5 -36 10 -33 5 -71 11 -85 13 l-25 5 26 -11z"/>
<path d="M478 473 c7 -3 16 -2 19 1 4 3 -2 6 -13 5 -11 0 -14 -3 -6 -6z"/>
<path d="M533 463 c9 -2 25 -2 35 0 9 3 1 5 -18 5 -19 0 -27 -2 -17 -5z"/>
<path d="M523 423 c9 -2 23 -2 30 0 6 3 -1 5 -18 5 -16 0 -22 -2 -12 -5z"/>
<path d="M1306 397 c3 -10 9 -15 12 -12 3 3 0 11 -7 18 -10 9 -11 8 -5 -6z"/>
<path d="M397 371 c-2 -11 -1 -35 3 -53 7 -30 8 -28 9 20 1 54 -3 66 -12 33z"/>
<path d="M268 363 c-22 -6 -23 -2 8 -57 14 -25 32 -46 40 -46 17 0 17 0 0 41
-10 23 -11 39 -5 51 10 19 -3 22 -43 11z"/>
<path d="M632 340 c0 -14 2 -19 5 -12 2 6 2 18 0 25 -3 6 -5 1 -5 -13z"/>
<path d="M738 334 c17 -12 21 -21 16 -42 -5 -23 -3 -22 13 8 18 34 18 35 -2
42 -38 12 -50 9 -27 -8z"/>
<path d="M242 305 c0 -16 2 -22 5 -12 2 9 2 23 0 30 -3 6 -5 -1 -5 -18z"/>
<path d="M641 274 c0 -11 3 -14 6 -6 3 7 2 16 -1 19 -3 4 -6 -2 -5 -13z"/>
<path d="M1151 287 c2 -1 12 -9 22 -16 15 -12 17 -12 11 3 -3 9 -13 16 -22 16
-8 0 -13 -1 -11 -3z"/>
<path d="M405 270 c3 -5 8 -10 11 -10 2 0 4 5 4 10 0 6 -5 10 -11 10 -5 0 -7
-4 -4 -10z"/>
</g>
</svg>
